<svg width="82" height="116" viewBox="0 0 82 116" fill="none" xmlns="http://www.w3.org/2000/svg">
<g id="OBJECTS">
<path id="Vector" d="M32.1003 12.93C32.1003 12.93 31.1772 4.26628 31.9865 2.41784C32.7958 0.569406 48.0207 0.456237 50.3348 2.30467C52.6615 4.15311 50.3348 12.93 50.3348 12.93L32.1003 12.93Z" fill="#752309"/>
<path id="Vector_2" d="M41.3948 9.66083C38.1702 9.44707 34.2376 8.29022 31.6453 5.96396C31.6832 9.08241 32.0879 12.9302 32.0879 12.9302L50.3223 12.9302C50.3223 12.9302 51.7386 7.56091 51.2454 4.34186C49.6521 7.87527 45.378 9.93747 41.3821 9.67341L41.3948 9.66083Z" fill="#12AB0F"/>
<path id="Vector_3" d="M50.4614 29.5281L50.4614 17.0417L31.6199 17.0417L31.6199 29.5281C31.6199 33.6022 29.2047 37.3242 25.4237 38.896C10.6541 45.0952 0.373461 59.7821 0.8034 76.8204C1.3345 98.0209 18.7344 115.298 40.0543 115.801C62.7273 116.342 81.2779 98.2221 81.2779 75.7893C81.2779 59.254 71.1996 45.0826 56.8219 38.9715C52.9904 37.3494 50.4614 33.6651 50.4614 29.5281Z" fill="#F4ECE5"/>
<path id="Vector_4" d="M52.3582 8.95648L29.7232 8.95648C28.522 8.95648 27.5482 9.9248 27.5482 11.1193L27.5482 17.5322C27.5482 18.7267 28.522 19.695 29.7232 19.695L52.3582 19.695C53.5594 19.695 54.5332 18.7267 54.5332 17.5322L54.5332 11.1193C54.5332 9.9248 53.5594 8.95648 52.3582 8.95648Z" fill="#F4ECE5"/>
<g id="Vector_5" style="mix-blend-mode:multiply" opacity="0.3">
<path d="M50.2464 16.6522L32.1637 16.6522C29.9002 16.6522 28.3574 15.533 27.5355 14.0241L27.5355 17.5324C27.5355 18.7269 28.5092 19.6952 29.7105 19.6952L52.3582 19.6952C53.5595 19.6952 54.5332 18.7269 54.5332 17.5324L54.5332 14.5648C53.6606 15.7971 52.2317 16.6522 50.2464 16.6522Z" fill="#25DDFF"/>
</g>
<path id="Vector_6" d="M62.9422 46.9062L19.139 46.9062C10.3505 53.5078 4.66014 63.9822 4.66014 75.7896C4.66014 95.7703 20.9472 111.966 41.0406 111.966C61.1339 111.966 77.421 95.7703 77.421 75.7896C77.421 63.9822 71.7306 53.5078 62.9422 46.9062Z" fill="#23CF53"/>
<path id="Vector_7" d="M62.9422 46.9063C65.1046 48.6667 53.1422 50.5654 41.0406 50.5654C28.9391 50.5654 16.5467 49.0439 19.139 46.9063C20.707 45.6111 28.9391 43.2471 41.0406 43.2471C53.1422 43.2471 61.3616 45.6363 62.9422 46.9063Z" fill="#12AB0F"/>
<g id="Vector_8" style="mix-blend-mode:multiply" opacity="0.3">
<path d="M79.596 64.3093C78.8373 69.7037 77.0417 75.3747 74.2977 79.6123C68.2153 89.0431 59.1866 97.3925 47.73 99.6182C39.2956 101.253 35.679 101.467 27.232 99.6182C25.1582 99.1655 23.6407 98.2979 21.491 97.4051C16.218 95.192 13.3222 94.0855 8.85841 89.3323C6.36729 86.6917 4.0785 83.8247 2.14378 80.744C1.68855 80.0147 1.27125 79.2602 0.87925 78.5058C2.25758 98.9392 19.2908 115.324 40.0543 115.814C62.7272 116.355 81.2779 98.235 81.2779 75.8023C81.2779 71.8036 80.6835 67.9558 79.5834 64.3093L79.596 64.3093Z" fill="#25DDFF"/>
</g>
<path id="Vector_9" d="M57.8589 61.7689C56.392 60.9013 53.9894 61.1779 52.6743 62.2593C46.1746 67.5909 40.636 73.9535 36.3492 81.1712C36.2987 81.2467 36.2607 81.3221 36.2101 81.3976C34.5916 79.8258 32.758 78.4677 30.7853 77.3989C29.2173 76.5564 27.0044 76.8079 25.6008 77.8893C25.0317 78.3294 24.3615 78.9456 24.311 79.7126C24.273 80.379 24.5259 81.0581 25.1582 81.3976C26.0434 81.8754 26.8906 82.4035 27.7125 82.9945C28.0919 83.2712 28.4586 83.5478 28.8253 83.8496C28.9265 83.9376 29.6346 84.4909 29.0656 84.0508C29.2426 84.1891 29.407 84.3651 29.584 84.5286C31.0129 85.8866 32.2522 87.4333 33.2764 89.1183C33.5041 89.4829 34.0984 89.7596 34.4777 89.8853C35.1985 90.1242 35.9952 90.0991 36.7286 89.9607C37.9426 89.747 39.4853 89.0931 40.0417 87.8985C41.6729 84.3777 43.6076 81.0078 45.8206 77.8139C45.8964 77.7007 45.9849 77.5875 46.0608 77.4744C46.0608 77.4744 46.0735 77.4618 46.0861 77.4492C46.0861 77.4492 46.0988 77.4241 46.1114 77.4241C46.1873 77.3109 46.2758 77.1977 46.3517 77.0845C46.6425 76.6947 46.9333 76.3049 47.2242 75.9151C47.8185 75.1481 48.4255 74.3811 49.0451 73.6392C50.2843 72.1554 51.5994 70.7093 52.9651 69.3387C53.7491 68.5465 54.5458 67.7795 55.3677 67.0376C55.5701 66.849 55.785 66.6604 55.9874 66.4843C56.0126 66.4592 56.0379 66.434 56.0632 66.4215C56.5058 66.0442 56.961 65.667 57.4036 65.2898C57.9727 64.8245 58.5923 64.2461 58.6934 63.4665C58.782 62.8 58.4279 62.121 57.8462 61.7815L57.8589 61.7689Z" fill="white"/>
</g>
</svg>
