<svg width="52" height="71" viewBox="0 0 52 71" fill="none" xmlns="http://www.w3.org/2000/svg">
<g id="Group" filter="url(#filter0_d_77_4703)">
<g id="OBJECTS">
<g id="Group_2">
<g id="Group_3">
<g id="Group_4">
<path id="Vector" d="M21.1162 6.5362C21.1162 6.5362 20.6115 1.79999 21.054 0.789506C21.4964 -0.220978 29.8194 -0.282844 31.0844 0.727639C32.3563 1.73812 31.0844 6.5362 31.0844 6.5362H21.1162Z" fill="#F6C423"/>
<path id="Vector_2" d="M26.1972 4.74897C24.4344 4.63211 22.2845 3.9997 20.8674 2.728C20.8881 4.43276 21.1093 6.53622 21.1093 6.53622H31.0776C31.0776 6.53622 31.8518 3.601 31.5822 1.84125C30.7112 3.77285 28.3747 4.90019 26.1902 4.75584L26.1972 4.74897Z" fill="#12AB0F"/>
<path id="Vector_3" d="M31.1536 15.6099V8.784H20.8535V15.6099C20.8535 17.8371 19.5332 19.8718 17.4663 20.7311C9.39215 24.12 3.77207 32.1489 4.0071 41.4632C4.29744 53.0528 13.8094 62.4977 25.4644 62.7727C37.859 63.0683 48 53.1628 48 40.8995C48 31.8601 42.4905 24.1131 34.6307 20.7723C32.5361 19.8856 31.1536 17.8715 31.1536 15.6099Z" fill="#F4ECE5"/>
<path id="Vector_4" d="M32.1905 4.36401H19.8167C19.16 4.36401 18.6277 4.89336 18.6277 5.54635V9.05211C18.6277 9.70509 19.16 10.2344 19.8167 10.2344H32.1905C32.8472 10.2344 33.3795 9.70509 33.3795 9.05211V5.54635C33.3795 4.89336 32.8472 4.36401 32.1905 4.36401Z" fill="#F4ECE5"/>
<g id="Vector_5" style="mix-blend-mode:multiply" opacity="0.3">
<path d="M31.0361 8.57089H21.1508C19.9134 8.57089 19.0701 7.9591 18.6207 7.13422V9.05207C18.6207 9.70511 19.153 10.2344 19.8097 10.2344H32.1905C32.8472 10.2344 33.3795 9.70511 33.3795 9.05207V7.4298C32.9025 8.10346 32.1214 8.57089 31.0361 8.57089Z" fill="#25DDFF"/>
</g>
<path id="Vector_6" d="M33.2242 52H18.7758C15.877 52.9132 14 54.3622 14 55.9956C14 58.7596 19.3723 61 26 61C32.6277 61 38 58.7596 38 55.9956C38 54.3622 36.123 52.9132 33.2242 52Z" fill="#23CF53"/>
<path id="Vector_7" d="M37.9765 54.0003C39.1586 54.9627 32.6191 56.0007 26.0036 56.0007C19.388 56.0007 12.6135 55.1689 14.0306 54.0003C14.8878 53.2923 19.388 52 26.0036 52C32.6191 52 37.1124 53.3061 37.9765 54.0003Z" fill="#12AB0F"/>
<g id="Vector_8" style="mix-blend-mode:multiply" opacity="0.3">
<path d="M46.1423 43C45.7554 44.9895 44.8397 47.0811 43.4404 48.644C40.3386 52.1222 35.7344 55.2015 29.8919 56.0224C25.5908 56.6253 23.7465 56.7041 19.4388 56.0224C18.3813 55.8555 17.6074 55.5355 16.5112 55.2062C13.8221 54.39 12.3454 53.9819 10.069 52.2288C8.79868 51.2549 7.63149 50.1976 6.64486 49.0614C6.41271 48.7924 6.19991 48.5141 6 48.2359C6.70289 55.772 15.3891 61.8148 25.9777 61.9956C37.5399 62.1951 47 55.5123 47 47.2388C47 45.764 46.6969 44.3449 46.1359 43H46.1423Z" fill="#25DDFF"/>
</g>
</g>
</g>
<path id="Vector_9" d="M25.004 47.3086C25.9074 45.3586 26.9787 43.4926 28.2035 41.7244C28.2289 41.6868 28.2551 41.6507 28.2756 41.6224L28.2777 41.6196C28.3012 41.5873 28.318 41.564 28.3326 41.5422L28.3602 41.5011L28.384 41.4774C28.3871 41.4737 28.3904 41.4698 28.3941 41.4657C28.4087 41.4451 28.4226 41.4259 28.4346 41.4094L28.4367 41.4065C28.4602 41.3742 28.477 41.3509 28.4916 41.3291L28.4986 41.3186L28.5062 41.3085L28.9831 40.6693L28.9886 40.662L28.9887 40.662C29.3154 40.2403 29.6514 39.8157 29.9956 39.4036C30.6819 38.5818 31.4105 37.7806 32.1676 37.0207C32.6007 36.5832 33.0418 36.1584 33.4978 35.7467C33.6101 35.6421 33.7275 35.5389 33.8344 35.4458C33.8428 35.4376 33.8544 35.4267 33.867 35.4158C33.8775 35.4066 33.894 35.3927 33.9157 35.3773C34.0302 35.2799 34.1458 35.1827 34.2601 35.0867L34.2606 35.0862C34.3836 34.9829 34.5049 34.881 34.6243 34.7792L34.6321 34.7725L34.6322 34.7726C34.9543 34.5093 35.131 34.306 35.1579 34.0986L35.1581 34.0971C35.1784 33.9444 35.0929 33.7638 34.9386 33.6737L34.8024 33.5942C34.5298 33.4767 34.1755 33.4289 33.7996 33.4669C33.3562 33.5117 32.9481 33.6695 32.6809 33.8893L32.6804 33.8896C29.1704 36.7688 26.1814 40.2031 23.8688 44.0969L23.8618 44.1087L23.8542 44.12C23.8501 44.1262 23.8453 44.1341 23.8322 44.1565L23.8305 44.1593C23.8192 44.1786 23.8005 44.2104 23.7782 44.2438L23.4445 44.7415L23.0145 44.324C22.1617 43.4959 21.1965 42.7812 20.1599 42.2194C19.489 41.8595 18.4912 41.9638 17.8686 42.4433C17.7234 42.5556 17.5909 42.6714 17.494 42.792C17.3978 42.9117 17.3622 43.0045 17.357 43.0752C17.3445 43.3066 17.4328 43.4578 17.5576 43.5248L17.5586 43.5254C18.0609 43.7965 18.5422 44.0965 19.0094 44.4324L19.0121 44.4344C19.2236 44.5886 19.4326 44.7461 19.6435 44.9197L19.6541 44.9284L19.654 44.9286C19.6537 44.9283 19.6596 44.9333 19.6754 44.9461L19.7257 44.9866C19.755 45.0101 19.7868 45.0353 19.8149 45.0577C19.8237 45.0647 19.8322 45.0714 19.8401 45.0777L19.8806 45.11L19.8808 45.1102C19.8843 45.1131 19.892 45.1193 19.899 45.1251L19.899 45.1252C19.9006 45.1265 19.9063 45.1314 19.9132 45.1377L19.9133 45.1377C19.9159 45.1401 19.9252 45.1486 19.9363 45.1601C19.941 45.165 19.9546 45.1791 19.9701 45.1988C19.9731 45.2028 19.9777 45.2092 19.9828 45.2165L22.4158 48.6053L22.5731 48.1307C22.8569 48.2248 23.1987 48.2222 23.5536 48.1552L23.5596 48.1541L23.5596 48.1541C23.8465 48.1036 24.1681 48.0011 24.4426 47.8476C24.7201 47.6924 24.9114 47.507 25.004 47.3086ZM25.004 47.3086C25.004 47.3084 25.0041 47.3083 25.0042 47.3081L25.4574 47.5192L25.0038 47.309C25.0038 47.3089 25.0039 47.3087 25.004 47.3086ZM19.6903 45.0207C19.7122 45.0258 19.7321 45.0321 19.749 45.0383L19.458 45.4127C19.4026 45.3686 19.3447 45.3223 19.3258 45.3058C19.291 45.2771 19.2561 45.2489 19.2213 45.221C19.2738 45.1452 19.3354 45.0786 19.3961 45.0414C19.4451 45.028 19.5072 45.0206 19.5629 45.0177C19.5676 45.0174 19.5724 45.0172 19.577 45.0171C19.6261 45.0151 19.6686 45.0167 19.6903 45.0207Z" fill="white" stroke="#11182F"/>
</g>
</g>
</g>
<defs>
<filter id="filter0_d_77_4703" x="0" y="0" width="52" height="70.7791" filterUnits="userSpaceOnUse" color-interpolation-filters="sRGB">
<feFlood flood-opacity="0" result="BackgroundImageFix"/>
<feColorMatrix in="SourceAlpha" type="matrix" values="0 0 0 0 0 0 0 0 0 0 0 0 0 0 0 0 0 0 127 0" result="hardAlpha"/>
<feOffset dy="4"/>
<feGaussianBlur stdDeviation="2"/>
<feComposite in2="hardAlpha" operator="out"/>
<feColorMatrix type="matrix" values="0 0 0 0 0 0 0 0 0 0 0 0 0 0 0 0 0 0 0.25 0"/>
<feBlend mode="normal" in2="BackgroundImageFix" result="effect1_dropShadow_77_4703"/>
<feBlend mode="normal" in="SourceGraphic" in2="effect1_dropShadow_77_4703" result="shape"/>
</filter>
</defs>
</svg>
